<mxfile host="app.diagrams.net" modified="2023-04-09T13:35:24.496Z" agent="Mozilla/5.0 (Windows NT 10.0; Win64; x64) AppleWebKit/537.36 (KHTML, like Gecko) Chrome/111.0.0.0 Safari/537.36" etag="3_3M9Vth_X1sb5D7b-MQ" version="21.1.5" type="device" pages="4">
  <diagram name="CREATE" id="XK2AcFWPKoj-jefrWRZN">
    <mxGraphModel dx="1035" dy="532" grid="1" gridSize="10" guides="1" tooltips="1" connect="1" arrows="1" fold="1" page="1" pageScale="1" pageWidth="850" pageHeight="1100" math="0" shadow="0">
      <root>
        <mxCell id="0" />
        <mxCell id="1" parent="0" />
        <mxCell id="dxe5ZKFgTLCQt_xLXooO-9" style="edgeStyle=orthogonalEdgeStyle;rounded=0;orthogonalLoop=1;jettySize=auto;html=1;" edge="1" parent="1" source="dxe5ZKFgTLCQt_xLXooO-1" target="dxe5ZKFgTLCQt_xLXooO-7">
          <mxGeometry relative="1" as="geometry" />
        </mxCell>
        <mxCell id="dxe5ZKFgTLCQt_xLXooO-1" value="Start" style="ellipse;whiteSpace=wrap;html=1;" vertex="1" parent="1">
          <mxGeometry x="340" y="50" width="110" height="60" as="geometry" />
        </mxCell>
        <mxCell id="d9uZU5PWBJMbsx8RoKFP-2" style="edgeStyle=orthogonalEdgeStyle;rounded=0;orthogonalLoop=1;jettySize=auto;html=1;entryX=0.5;entryY=0;entryDx=0;entryDy=0;" edge="1" parent="1" source="dxe5ZKFgTLCQt_xLXooO-4" target="dxe5ZKFgTLCQt_xLXooO-6">
          <mxGeometry relative="1" as="geometry" />
        </mxCell>
        <mxCell id="dxe5ZKFgTLCQt_xLXooO-4" value="Email, Password" style="shape=parallelogram;perimeter=parallelogramPerimeter;whiteSpace=wrap;html=1;fixedSize=1;" vertex="1" parent="1">
          <mxGeometry x="330" y="250" width="130" height="60" as="geometry" />
        </mxCell>
        <mxCell id="d9uZU5PWBJMbsx8RoKFP-3" value="true" style="edgeStyle=orthogonalEdgeStyle;rounded=0;orthogonalLoop=1;jettySize=auto;html=1;entryX=0.5;entryY=0;entryDx=0;entryDy=0;entryPerimeter=0;" edge="1" parent="1" source="dxe5ZKFgTLCQt_xLXooO-6" target="dxe5ZKFgTLCQt_xLXooO-15">
          <mxGeometry relative="1" as="geometry" />
        </mxCell>
        <mxCell id="d9uZU5PWBJMbsx8RoKFP-4" value="false" style="edgeStyle=orthogonalEdgeStyle;rounded=0;orthogonalLoop=1;jettySize=auto;html=1;entryX=1;entryY=0.5;entryDx=0;entryDy=0;" edge="1" parent="1" source="dxe5ZKFgTLCQt_xLXooO-6" target="dxe5ZKFgTLCQt_xLXooO-12">
          <mxGeometry relative="1" as="geometry">
            <Array as="points">
              <mxPoint x="330" y="400" />
              <mxPoint x="330" y="400" />
            </Array>
          </mxGeometry>
        </mxCell>
        <mxCell id="dxe5ZKFgTLCQt_xLXooO-6" value="email uniqe" style="rhombus;whiteSpace=wrap;html=1;" vertex="1" parent="1">
          <mxGeometry x="355" y="360" width="80" height="80" as="geometry" />
        </mxCell>
        <mxCell id="dxe5ZKFgTLCQt_xLXooO-8" style="edgeStyle=orthogonalEdgeStyle;rounded=0;orthogonalLoop=1;jettySize=auto;html=1;" edge="1" parent="1" source="dxe5ZKFgTLCQt_xLXooO-7" target="dxe5ZKFgTLCQt_xLXooO-4">
          <mxGeometry relative="1" as="geometry" />
        </mxCell>
        <mxCell id="dxe5ZKFgTLCQt_xLXooO-7" value="CREATE&lt;br&gt;( POST )" style="shape=process;whiteSpace=wrap;html=1;backgroundOutline=1;" vertex="1" parent="1">
          <mxGeometry x="335" y="150" width="120" height="60" as="geometry" />
        </mxCell>
        <mxCell id="dxe5ZKFgTLCQt_xLXooO-14" style="edgeStyle=orthogonalEdgeStyle;rounded=0;orthogonalLoop=1;jettySize=auto;html=1;entryX=0;entryY=0.25;entryDx=0;entryDy=0;exitX=0.5;exitY=0;exitDx=0;exitDy=0;" edge="1" parent="1" source="dxe5ZKFgTLCQt_xLXooO-12" target="dxe5ZKFgTLCQt_xLXooO-4">
          <mxGeometry relative="1" as="geometry">
            <Array as="points">
              <mxPoint x="250" y="268" />
            </Array>
          </mxGeometry>
        </mxCell>
        <mxCell id="dxe5ZKFgTLCQt_xLXooO-12" value="email already &lt;br&gt;exist" style="shape=parallelogram;perimeter=parallelogramPerimeter;whiteSpace=wrap;html=1;fixedSize=1;" vertex="1" parent="1">
          <mxGeometry x="190" y="370" width="120" height="60" as="geometry" />
        </mxCell>
        <mxCell id="d9uZU5PWBJMbsx8RoKFP-7" style="edgeStyle=orthogonalEdgeStyle;rounded=0;orthogonalLoop=1;jettySize=auto;html=1;entryX=0;entryY=0.5;entryDx=0;entryDy=0;" edge="1" parent="1" source="dxe5ZKFgTLCQt_xLXooO-15" target="dxe5ZKFgTLCQt_xLXooO-18">
          <mxGeometry relative="1" as="geometry" />
        </mxCell>
        <mxCell id="dxe5ZKFgTLCQt_xLXooO-15" value="db" style="strokeWidth=2;html=1;shape=mxgraph.flowchart.database;whiteSpace=wrap;" vertex="1" parent="1">
          <mxGeometry x="365" y="470" width="60" height="60" as="geometry" />
        </mxCell>
        <mxCell id="d9uZU5PWBJMbsx8RoKFP-9" style="edgeStyle=orthogonalEdgeStyle;rounded=0;orthogonalLoop=1;jettySize=auto;html=1;entryX=0.5;entryY=1;entryDx=0;entryDy=0;" edge="1" parent="1" source="dxe5ZKFgTLCQt_xLXooO-18" target="dxe5ZKFgTLCQt_xLXooO-22">
          <mxGeometry relative="1" as="geometry" />
        </mxCell>
        <mxCell id="dxe5ZKFgTLCQt_xLXooO-18" value="create data succesfully" style="shape=parallelogram;perimeter=parallelogramPerimeter;whiteSpace=wrap;html=1;fixedSize=1;" vertex="1" parent="1">
          <mxGeometry x="500" y="470" width="120" height="60" as="geometry" />
        </mxCell>
        <mxCell id="dxe5ZKFgTLCQt_xLXooO-22" value="End" style="ellipse;whiteSpace=wrap;html=1;" vertex="1" parent="1">
          <mxGeometry x="505" y="360" width="110" height="60" as="geometry" />
        </mxCell>
      </root>
    </mxGraphModel>
  </diagram>
  <diagram id="yp5ZDW-6ywgK8NU9ahUF" name="READ">
    <mxGraphModel dx="838" dy="430" grid="1" gridSize="10" guides="1" tooltips="1" connect="1" arrows="1" fold="1" page="1" pageScale="1" pageWidth="850" pageHeight="1100" math="0" shadow="0">
      <root>
        <mxCell id="0" />
        <mxCell id="1" parent="0" />
        <mxCell id="IQ6oAtBL8s7FuuWXi9iS-1" style="edgeStyle=orthogonalEdgeStyle;rounded=0;orthogonalLoop=1;jettySize=auto;html=1;" edge="1" parent="1" source="IQ6oAtBL8s7FuuWXi9iS-2" target="IQ6oAtBL8s7FuuWXi9iS-11">
          <mxGeometry relative="1" as="geometry" />
        </mxCell>
        <mxCell id="IQ6oAtBL8s7FuuWXi9iS-2" value="Start" style="ellipse;whiteSpace=wrap;html=1;" vertex="1" parent="1">
          <mxGeometry x="345" y="10" width="110" height="60" as="geometry" />
        </mxCell>
        <mxCell id="IQ6oAtBL8s7FuuWXi9iS-3" style="edgeStyle=orthogonalEdgeStyle;rounded=0;orthogonalLoop=1;jettySize=auto;html=1;entryX=0.5;entryY=0;entryDx=0;entryDy=0;entryPerimeter=0;" edge="1" parent="1" source="IQ6oAtBL8s7FuuWXi9iS-5" target="IQ6oAtBL8s7FuuWXi9iS-15">
          <mxGeometry relative="1" as="geometry" />
        </mxCell>
        <mxCell id="IQ6oAtBL8s7FuuWXi9iS-5" value="id" style="shape=parallelogram;perimeter=parallelogramPerimeter;whiteSpace=wrap;html=1;fixedSize=1;" vertex="1" parent="1">
          <mxGeometry x="330" y="250" width="130" height="60" as="geometry" />
        </mxCell>
        <mxCell id="IQ6oAtBL8s7FuuWXi9iS-6" value="false" style="edgeStyle=orthogonalEdgeStyle;rounded=0;orthogonalLoop=1;jettySize=auto;html=1;entryX=0.5;entryY=1;entryDx=0;entryDy=0;" edge="1" parent="1" source="IQ6oAtBL8s7FuuWXi9iS-9" target="IQ6oAtBL8s7FuuWXi9iS-12">
          <mxGeometry relative="1" as="geometry" />
        </mxCell>
        <mxCell id="IQ6oAtBL8s7FuuWXi9iS-7" value="false" style="edgeStyle=orthogonalEdgeStyle;rounded=0;orthogonalLoop=1;jettySize=auto;html=1;entryX=0.5;entryY=1;entryDx=0;entryDy=0;" edge="1" parent="1" source="IQ6oAtBL8s7FuuWXi9iS-9" target="IQ6oAtBL8s7FuuWXi9iS-20">
          <mxGeometry relative="1" as="geometry" />
        </mxCell>
        <mxCell id="IQ6oAtBL8s7FuuWXi9iS-8" value="true" style="edgeStyle=orthogonalEdgeStyle;rounded=0;orthogonalLoop=1;jettySize=auto;html=1;" edge="1" parent="1" source="IQ6oAtBL8s7FuuWXi9iS-9" target="IQ6oAtBL8s7FuuWXi9iS-17">
          <mxGeometry relative="1" as="geometry" />
        </mxCell>
        <mxCell id="IQ6oAtBL8s7FuuWXi9iS-9" value="available" style="rhombus;whiteSpace=wrap;html=1;" vertex="1" parent="1">
          <mxGeometry x="355" y="470" width="80" height="80" as="geometry" />
        </mxCell>
        <mxCell id="IQ6oAtBL8s7FuuWXi9iS-10" style="edgeStyle=orthogonalEdgeStyle;rounded=0;orthogonalLoop=1;jettySize=auto;html=1;exitX=1;exitY=0.5;exitDx=0;exitDy=0;" edge="1" parent="1" source="IQ6oAtBL8s7FuuWXi9iS-11" target="IQ6oAtBL8s7FuuWXi9iS-5">
          <mxGeometry relative="1" as="geometry" />
        </mxCell>
        <mxCell id="IQ6oAtBL8s7FuuWXi9iS-11" value="READ&lt;br&gt;(GET)&lt;br&gt;DETAIL USER" style="shape=process;whiteSpace=wrap;html=1;backgroundOutline=1;" vertex="1" parent="1">
          <mxGeometry x="225" y="130" width="120" height="60" as="geometry" />
        </mxCell>
        <mxCell id="IQ6oAtBL8s7FuuWXi9iS-12" value="user not found" style="shape=parallelogram;perimeter=parallelogramPerimeter;whiteSpace=wrap;html=1;fixedSize=1;" vertex="1" parent="1">
          <mxGeometry x="160" y="360" width="120" height="60" as="geometry" />
        </mxCell>
        <mxCell id="IQ6oAtBL8s7FuuWXi9iS-13" style="edgeStyle=orthogonalEdgeStyle;rounded=0;orthogonalLoop=1;jettySize=auto;html=1;" edge="1" parent="1" source="IQ6oAtBL8s7FuuWXi9iS-15" target="IQ6oAtBL8s7FuuWXi9iS-9">
          <mxGeometry relative="1" as="geometry" />
        </mxCell>
        <mxCell id="2a7o9no3IbH8TAo410Lb-11" style="edgeStyle=orthogonalEdgeStyle;rounded=0;orthogonalLoop=1;jettySize=auto;html=1;" edge="1" parent="1" source="IQ6oAtBL8s7FuuWXi9iS-15" target="2a7o9no3IbH8TAo410Lb-4">
          <mxGeometry relative="1" as="geometry">
            <Array as="points">
              <mxPoint x="468" y="400" />
              <mxPoint x="468" y="390" />
            </Array>
          </mxGeometry>
        </mxCell>
        <mxCell id="IQ6oAtBL8s7FuuWXi9iS-15" value="db" style="strokeWidth=2;html=1;shape=mxgraph.flowchart.database;whiteSpace=wrap;" vertex="1" parent="1">
          <mxGeometry x="365" y="360" width="60" height="60" as="geometry" />
        </mxCell>
        <mxCell id="IQ6oAtBL8s7FuuWXi9iS-16" style="edgeStyle=orthogonalEdgeStyle;rounded=0;orthogonalLoop=1;jettySize=auto;html=1;" edge="1" parent="1" source="IQ6oAtBL8s7FuuWXi9iS-17" target="IQ6oAtBL8s7FuuWXi9iS-18">
          <mxGeometry relative="1" as="geometry" />
        </mxCell>
        <mxCell id="IQ6oAtBL8s7FuuWXi9iS-17" value="show data user" style="shape=parallelogram;perimeter=parallelogramPerimeter;whiteSpace=wrap;html=1;fixedSize=1;" vertex="1" parent="1">
          <mxGeometry x="490" y="480" width="120" height="60" as="geometry" />
        </mxCell>
        <mxCell id="IQ6oAtBL8s7FuuWXi9iS-18" value="End" style="ellipse;whiteSpace=wrap;html=1;" vertex="1" parent="1">
          <mxGeometry x="650" y="480" width="110" height="60" as="geometry" />
        </mxCell>
        <mxCell id="IQ6oAtBL8s7FuuWXi9iS-19" style="edgeStyle=orthogonalEdgeStyle;rounded=0;orthogonalLoop=1;jettySize=auto;html=1;entryX=0;entryY=0.5;entryDx=0;entryDy=0;" edge="1" parent="1" source="IQ6oAtBL8s7FuuWXi9iS-20" target="IQ6oAtBL8s7FuuWXi9iS-5">
          <mxGeometry relative="1" as="geometry">
            <mxPoint x="230" y="270" as="targetPoint" />
            <Array as="points">
              <mxPoint x="110" y="280" />
            </Array>
          </mxGeometry>
        </mxCell>
        <mxCell id="IQ6oAtBL8s7FuuWXi9iS-20" value="input id invalid!" style="shape=parallelogram;perimeter=parallelogramPerimeter;whiteSpace=wrap;html=1;fixedSize=1;" vertex="1" parent="1">
          <mxGeometry x="50" y="360" width="120" height="60" as="geometry" />
        </mxCell>
        <mxCell id="IQ6oAtBL8s7FuuWXi9iS-23" value="" style="endArrow=none;html=1;rounded=0;exitX=0.5;exitY=0;exitDx=0;exitDy=0;" edge="1" parent="1" source="IQ6oAtBL8s7FuuWXi9iS-12">
          <mxGeometry width="50" height="50" relative="1" as="geometry">
            <mxPoint x="400" y="470" as="sourcePoint" />
            <mxPoint x="220" y="280" as="targetPoint" />
          </mxGeometry>
        </mxCell>
        <mxCell id="2a7o9no3IbH8TAo410Lb-6" style="edgeStyle=orthogonalEdgeStyle;rounded=0;orthogonalLoop=1;jettySize=auto;html=1;entryX=0.5;entryY=0;entryDx=0;entryDy=0;" edge="1" parent="1" source="2a7o9no3IbH8TAo410Lb-1" target="2a7o9no3IbH8TAo410Lb-3">
          <mxGeometry relative="1" as="geometry" />
        </mxCell>
        <mxCell id="2a7o9no3IbH8TAo410Lb-1" value="READ&lt;br&gt;(GET)&lt;br&gt;ALL USER" style="shape=process;whiteSpace=wrap;html=1;backgroundOutline=1;" vertex="1" parent="1">
          <mxGeometry x="490" y="130" width="120" height="60" as="geometry" />
        </mxCell>
        <mxCell id="2a7o9no3IbH8TAo410Lb-2" style="edgeStyle=orthogonalEdgeStyle;rounded=0;orthogonalLoop=1;jettySize=auto;html=1;" edge="1" parent="1" target="2a7o9no3IbH8TAo410Lb-1">
          <mxGeometry relative="1" as="geometry">
            <mxPoint x="400" y="100" as="sourcePoint" />
            <mxPoint x="295" y="140" as="targetPoint" />
          </mxGeometry>
        </mxCell>
        <mxCell id="2a7o9no3IbH8TAo410Lb-5" style="edgeStyle=orthogonalEdgeStyle;rounded=0;orthogonalLoop=1;jettySize=auto;html=1;entryX=0.5;entryY=0;entryDx=0;entryDy=0;" edge="1" parent="1" source="2a7o9no3IbH8TAo410Lb-3" target="2a7o9no3IbH8TAo410Lb-4">
          <mxGeometry relative="1" as="geometry" />
        </mxCell>
        <mxCell id="2a7o9no3IbH8TAo410Lb-10" style="edgeStyle=orthogonalEdgeStyle;rounded=0;orthogonalLoop=1;jettySize=auto;html=1;entryX=1;entryY=0.5;entryDx=0;entryDy=0;entryPerimeter=0;" edge="1" parent="1" source="2a7o9no3IbH8TAo410Lb-3" target="IQ6oAtBL8s7FuuWXi9iS-15">
          <mxGeometry relative="1" as="geometry">
            <Array as="points">
              <mxPoint x="460" y="280" />
              <mxPoint x="460" y="390" />
            </Array>
          </mxGeometry>
        </mxCell>
        <mxCell id="2a7o9no3IbH8TAo410Lb-3" value="id,email, password" style="shape=parallelogram;perimeter=parallelogramPerimeter;whiteSpace=wrap;html=1;fixedSize=1;" vertex="1" parent="1">
          <mxGeometry x="485" y="250" width="130" height="60" as="geometry" />
        </mxCell>
        <mxCell id="2a7o9no3IbH8TAo410Lb-9" value="false" style="edgeStyle=orthogonalEdgeStyle;rounded=0;orthogonalLoop=1;jettySize=auto;html=1;entryX=0;entryY=0.5;entryDx=0;entryDy=0;" edge="1" parent="1" source="2a7o9no3IbH8TAo410Lb-4" target="2a7o9no3IbH8TAo410Lb-8">
          <mxGeometry relative="1" as="geometry" />
        </mxCell>
        <mxCell id="2a7o9no3IbH8TAo410Lb-13" value="true" style="edgeStyle=orthogonalEdgeStyle;rounded=0;orthogonalLoop=1;jettySize=auto;html=1;entryX=0.5;entryY=0;entryDx=0;entryDy=0;" edge="1" parent="1" source="2a7o9no3IbH8TAo410Lb-4" target="IQ6oAtBL8s7FuuWXi9iS-17">
          <mxGeometry relative="1" as="geometry" />
        </mxCell>
        <mxCell id="2a7o9no3IbH8TAo410Lb-4" value="available" style="rhombus;whiteSpace=wrap;html=1;" vertex="1" parent="1">
          <mxGeometry x="510" y="350" width="80" height="80" as="geometry" />
        </mxCell>
        <mxCell id="2a7o9no3IbH8TAo410Lb-8" value="data user empty" style="shape=parallelogram;perimeter=parallelogramPerimeter;whiteSpace=wrap;html=1;fixedSize=1;" vertex="1" parent="1">
          <mxGeometry x="640" y="360" width="120" height="60" as="geometry" />
        </mxCell>
      </root>
    </mxGraphModel>
  </diagram>
  <diagram id="EMsWuWe1gdAlU2a0c8ul" name="UPDATE">
    <mxGraphModel dx="880" dy="452" grid="1" gridSize="10" guides="1" tooltips="1" connect="1" arrows="1" fold="1" page="1" pageScale="1" pageWidth="850" pageHeight="1100" math="0" shadow="0">
      <root>
        <mxCell id="0" />
        <mxCell id="1" parent="0" />
        <mxCell id="KgPUWdY7-36iYDqq_6hK-1" style="edgeStyle=orthogonalEdgeStyle;rounded=0;orthogonalLoop=1;jettySize=auto;html=1;" edge="1" parent="1" source="KgPUWdY7-36iYDqq_6hK-2" target="KgPUWdY7-36iYDqq_6hK-10">
          <mxGeometry relative="1" as="geometry" />
        </mxCell>
        <mxCell id="KgPUWdY7-36iYDqq_6hK-2" value="Start" style="ellipse;whiteSpace=wrap;html=1;" vertex="1" parent="1">
          <mxGeometry x="340" y="50" width="110" height="60" as="geometry" />
        </mxCell>
        <mxCell id="KgPUWdY7-36iYDqq_6hK-21" style="edgeStyle=orthogonalEdgeStyle;rounded=0;orthogonalLoop=1;jettySize=auto;html=1;entryX=0.5;entryY=0;entryDx=0;entryDy=0;entryPerimeter=0;" edge="1" parent="1" source="KgPUWdY7-36iYDqq_6hK-5" target="KgPUWdY7-36iYDqq_6hK-14">
          <mxGeometry relative="1" as="geometry" />
        </mxCell>
        <mxCell id="KgPUWdY7-36iYDqq_6hK-27" style="edgeStyle=orthogonalEdgeStyle;rounded=0;orthogonalLoop=1;jettySize=auto;html=1;entryX=0;entryY=0.5;entryDx=0;entryDy=0;" edge="1" parent="1" source="KgPUWdY7-36iYDqq_6hK-5" target="KgPUWdY7-36iYDqq_6hK-26">
          <mxGeometry relative="1" as="geometry" />
        </mxCell>
        <mxCell id="KgPUWdY7-36iYDqq_6hK-5" value="id" style="shape=parallelogram;perimeter=parallelogramPerimeter;whiteSpace=wrap;html=1;fixedSize=1;" vertex="1" parent="1">
          <mxGeometry x="330" y="250" width="130" height="60" as="geometry" />
        </mxCell>
        <mxCell id="KgPUWdY7-36iYDqq_6hK-23" value="false" style="edgeStyle=orthogonalEdgeStyle;rounded=0;orthogonalLoop=1;jettySize=auto;html=1;entryX=0.5;entryY=1;entryDx=0;entryDy=0;" edge="1" parent="1" source="KgPUWdY7-36iYDqq_6hK-8" target="KgPUWdY7-36iYDqq_6hK-12">
          <mxGeometry relative="1" as="geometry" />
        </mxCell>
        <mxCell id="KgPUWdY7-36iYDqq_6hK-24" value="false" style="edgeStyle=orthogonalEdgeStyle;rounded=0;orthogonalLoop=1;jettySize=auto;html=1;entryX=0.5;entryY=1;entryDx=0;entryDy=0;" edge="1" parent="1" source="KgPUWdY7-36iYDqq_6hK-8" target="KgPUWdY7-36iYDqq_6hK-18">
          <mxGeometry relative="1" as="geometry" />
        </mxCell>
        <mxCell id="KgPUWdY7-36iYDqq_6hK-32" value="true" style="edgeStyle=orthogonalEdgeStyle;rounded=0;orthogonalLoop=1;jettySize=auto;html=1;" edge="1" parent="1" source="KgPUWdY7-36iYDqq_6hK-8" target="KgPUWdY7-36iYDqq_6hK-16">
          <mxGeometry relative="1" as="geometry" />
        </mxCell>
        <mxCell id="KgPUWdY7-36iYDqq_6hK-8" value="valiadate" style="rhombus;whiteSpace=wrap;html=1;" vertex="1" parent="1">
          <mxGeometry x="355" y="470" width="80" height="80" as="geometry" />
        </mxCell>
        <mxCell id="KgPUWdY7-36iYDqq_6hK-9" style="edgeStyle=orthogonalEdgeStyle;rounded=0;orthogonalLoop=1;jettySize=auto;html=1;" edge="1" parent="1" source="KgPUWdY7-36iYDqq_6hK-10" target="KgPUWdY7-36iYDqq_6hK-5">
          <mxGeometry relative="1" as="geometry" />
        </mxCell>
        <mxCell id="KgPUWdY7-36iYDqq_6hK-10" value="UPADATE&lt;br&gt;(PATCH)" style="shape=process;whiteSpace=wrap;html=1;backgroundOutline=1;" vertex="1" parent="1">
          <mxGeometry x="335" y="150" width="120" height="60" as="geometry" />
        </mxCell>
        <mxCell id="KgPUWdY7-36iYDqq_6hK-12" value="user not found" style="shape=parallelogram;perimeter=parallelogramPerimeter;whiteSpace=wrap;html=1;fixedSize=1;" vertex="1" parent="1">
          <mxGeometry x="160" y="360" width="120" height="60" as="geometry" />
        </mxCell>
        <mxCell id="KgPUWdY7-36iYDqq_6hK-22" style="edgeStyle=orthogonalEdgeStyle;rounded=0;orthogonalLoop=1;jettySize=auto;html=1;" edge="1" parent="1" source="KgPUWdY7-36iYDqq_6hK-14" target="KgPUWdY7-36iYDqq_6hK-8">
          <mxGeometry relative="1" as="geometry" />
        </mxCell>
        <mxCell id="KgPUWdY7-36iYDqq_6hK-30" style="edgeStyle=orthogonalEdgeStyle;rounded=0;orthogonalLoop=1;jettySize=auto;html=1;entryX=0.5;entryY=0;entryDx=0;entryDy=0;" edge="1" parent="1" source="KgPUWdY7-36iYDqq_6hK-14" target="KgPUWdY7-36iYDqq_6hK-16">
          <mxGeometry relative="1" as="geometry">
            <Array as="points">
              <mxPoint x="560" y="410" />
            </Array>
          </mxGeometry>
        </mxCell>
        <mxCell id="KgPUWdY7-36iYDqq_6hK-14" value="db" style="strokeWidth=2;html=1;shape=mxgraph.flowchart.database;whiteSpace=wrap;" vertex="1" parent="1">
          <mxGeometry x="365" y="360" width="60" height="60" as="geometry" />
        </mxCell>
        <mxCell id="KgPUWdY7-36iYDqq_6hK-31" style="edgeStyle=orthogonalEdgeStyle;rounded=0;orthogonalLoop=1;jettySize=auto;html=1;" edge="1" parent="1" source="KgPUWdY7-36iYDqq_6hK-16" target="KgPUWdY7-36iYDqq_6hK-17">
          <mxGeometry relative="1" as="geometry" />
        </mxCell>
        <mxCell id="KgPUWdY7-36iYDqq_6hK-16" value="update data &lt;br&gt;succes" style="shape=parallelogram;perimeter=parallelogramPerimeter;whiteSpace=wrap;html=1;fixedSize=1;" vertex="1" parent="1">
          <mxGeometry x="500" y="480" width="120" height="60" as="geometry" />
        </mxCell>
        <mxCell id="KgPUWdY7-36iYDqq_6hK-17" value="End" style="ellipse;whiteSpace=wrap;html=1;" vertex="1" parent="1">
          <mxGeometry x="650" y="480" width="110" height="60" as="geometry" />
        </mxCell>
        <mxCell id="qcUgdpQKpJuGO4Nj2AeW-1" style="edgeStyle=orthogonalEdgeStyle;rounded=0;orthogonalLoop=1;jettySize=auto;html=1;entryX=0;entryY=0.5;entryDx=0;entryDy=0;" edge="1" parent="1" source="KgPUWdY7-36iYDqq_6hK-18" target="KgPUWdY7-36iYDqq_6hK-5">
          <mxGeometry relative="1" as="geometry">
            <mxPoint x="230" y="270" as="targetPoint" />
            <Array as="points">
              <mxPoint x="110" y="280" />
            </Array>
          </mxGeometry>
        </mxCell>
        <mxCell id="KgPUWdY7-36iYDqq_6hK-18" value="input id invalid!" style="shape=parallelogram;perimeter=parallelogramPerimeter;whiteSpace=wrap;html=1;fixedSize=1;" vertex="1" parent="1">
          <mxGeometry x="50" y="360" width="120" height="60" as="geometry" />
        </mxCell>
        <mxCell id="KgPUWdY7-36iYDqq_6hK-29" style="edgeStyle=orthogonalEdgeStyle;rounded=0;orthogonalLoop=1;jettySize=auto;html=1;entryX=1;entryY=0.5;entryDx=0;entryDy=0;entryPerimeter=0;" edge="1" parent="1" source="KgPUWdY7-36iYDqq_6hK-26" target="KgPUWdY7-36iYDqq_6hK-14">
          <mxGeometry relative="1" as="geometry">
            <Array as="points">
              <mxPoint x="560" y="390" />
            </Array>
          </mxGeometry>
        </mxCell>
        <mxCell id="KgPUWdY7-36iYDqq_6hK-26" value="edit email,&lt;br&gt;&amp;nbsp;password" style="shape=parallelogram;perimeter=parallelogramPerimeter;whiteSpace=wrap;html=1;fixedSize=1;" vertex="1" parent="1">
          <mxGeometry x="500" y="250" width="120" height="60" as="geometry" />
        </mxCell>
        <mxCell id="qcUgdpQKpJuGO4Nj2AeW-2" value="" style="endArrow=none;html=1;rounded=0;exitX=0.5;exitY=0;exitDx=0;exitDy=0;" edge="1" parent="1" source="KgPUWdY7-36iYDqq_6hK-12">
          <mxGeometry width="50" height="50" relative="1" as="geometry">
            <mxPoint x="400" y="470" as="sourcePoint" />
            <mxPoint x="220" y="280" as="targetPoint" />
          </mxGeometry>
        </mxCell>
      </root>
    </mxGraphModel>
  </diagram>
  <diagram id="QY9fxToJ9LMjGEicR2Cr" name="DELETE">
    <mxGraphModel dx="880" dy="452" grid="1" gridSize="10" guides="1" tooltips="1" connect="1" arrows="1" fold="1" page="1" pageScale="1" pageWidth="850" pageHeight="1100" math="0" shadow="0">
      <root>
        <mxCell id="0" />
        <mxCell id="1" parent="0" />
        <mxCell id="DMPIcF6X6516Oq7iumxS-1" style="edgeStyle=orthogonalEdgeStyle;rounded=0;orthogonalLoop=1;jettySize=auto;html=1;" edge="1" parent="1" source="DMPIcF6X6516Oq7iumxS-2" target="DMPIcF6X6516Oq7iumxS-11">
          <mxGeometry relative="1" as="geometry" />
        </mxCell>
        <mxCell id="DMPIcF6X6516Oq7iumxS-2" value="Start" style="ellipse;whiteSpace=wrap;html=1;" vertex="1" parent="1">
          <mxGeometry x="340" y="50" width="110" height="60" as="geometry" />
        </mxCell>
        <mxCell id="DMPIcF6X6516Oq7iumxS-3" style="edgeStyle=orthogonalEdgeStyle;rounded=0;orthogonalLoop=1;jettySize=auto;html=1;entryX=0.5;entryY=0;entryDx=0;entryDy=0;entryPerimeter=0;" edge="1" parent="1" source="DMPIcF6X6516Oq7iumxS-5" target="DMPIcF6X6516Oq7iumxS-15">
          <mxGeometry relative="1" as="geometry" />
        </mxCell>
        <mxCell id="DMPIcF6X6516Oq7iumxS-5" value="id" style="shape=parallelogram;perimeter=parallelogramPerimeter;whiteSpace=wrap;html=1;fixedSize=1;" vertex="1" parent="1">
          <mxGeometry x="330" y="250" width="130" height="60" as="geometry" />
        </mxCell>
        <mxCell id="DMPIcF6X6516Oq7iumxS-6" value="false" style="edgeStyle=orthogonalEdgeStyle;rounded=0;orthogonalLoop=1;jettySize=auto;html=1;entryX=0.5;entryY=1;entryDx=0;entryDy=0;" edge="1" parent="1" source="DMPIcF6X6516Oq7iumxS-9" target="DMPIcF6X6516Oq7iumxS-12">
          <mxGeometry relative="1" as="geometry" />
        </mxCell>
        <mxCell id="DMPIcF6X6516Oq7iumxS-7" value="false" style="edgeStyle=orthogonalEdgeStyle;rounded=0;orthogonalLoop=1;jettySize=auto;html=1;entryX=0.5;entryY=1;entryDx=0;entryDy=0;" edge="1" parent="1" source="DMPIcF6X6516Oq7iumxS-9" target="DMPIcF6X6516Oq7iumxS-20">
          <mxGeometry relative="1" as="geometry" />
        </mxCell>
        <mxCell id="DMPIcF6X6516Oq7iumxS-8" value="true" style="edgeStyle=orthogonalEdgeStyle;rounded=0;orthogonalLoop=1;jettySize=auto;html=1;" edge="1" parent="1" source="DMPIcF6X6516Oq7iumxS-9" target="DMPIcF6X6516Oq7iumxS-17">
          <mxGeometry relative="1" as="geometry" />
        </mxCell>
        <mxCell id="DMPIcF6X6516Oq7iumxS-9" value="validate" style="rhombus;whiteSpace=wrap;html=1;" vertex="1" parent="1">
          <mxGeometry x="355" y="470" width="80" height="80" as="geometry" />
        </mxCell>
        <mxCell id="DMPIcF6X6516Oq7iumxS-10" style="edgeStyle=orthogonalEdgeStyle;rounded=0;orthogonalLoop=1;jettySize=auto;html=1;" edge="1" parent="1" source="DMPIcF6X6516Oq7iumxS-11" target="DMPIcF6X6516Oq7iumxS-5">
          <mxGeometry relative="1" as="geometry" />
        </mxCell>
        <mxCell id="DMPIcF6X6516Oq7iumxS-11" value="DELETE&lt;br&gt;(&lt;font color=&quot;#ff0000&quot;&gt;DEL&lt;/font&gt;)" style="shape=process;whiteSpace=wrap;html=1;backgroundOutline=1;" vertex="1" parent="1">
          <mxGeometry x="335" y="150" width="120" height="60" as="geometry" />
        </mxCell>
        <mxCell id="DMPIcF6X6516Oq7iumxS-12" value="user not found!" style="shape=parallelogram;perimeter=parallelogramPerimeter;whiteSpace=wrap;html=1;fixedSize=1;" vertex="1" parent="1">
          <mxGeometry x="160" y="360" width="120" height="60" as="geometry" />
        </mxCell>
        <mxCell id="DMPIcF6X6516Oq7iumxS-13" style="edgeStyle=orthogonalEdgeStyle;rounded=0;orthogonalLoop=1;jettySize=auto;html=1;" edge="1" parent="1" source="DMPIcF6X6516Oq7iumxS-15" target="DMPIcF6X6516Oq7iumxS-9">
          <mxGeometry relative="1" as="geometry" />
        </mxCell>
        <mxCell id="DMPIcF6X6516Oq7iumxS-15" value="db" style="strokeWidth=2;html=1;shape=mxgraph.flowchart.database;whiteSpace=wrap;" vertex="1" parent="1">
          <mxGeometry x="365" y="360" width="60" height="60" as="geometry" />
        </mxCell>
        <mxCell id="DMPIcF6X6516Oq7iumxS-16" style="edgeStyle=orthogonalEdgeStyle;rounded=0;orthogonalLoop=1;jettySize=auto;html=1;" edge="1" parent="1" source="DMPIcF6X6516Oq7iumxS-17" target="DMPIcF6X6516Oq7iumxS-18">
          <mxGeometry relative="1" as="geometry" />
        </mxCell>
        <mxCell id="DMPIcF6X6516Oq7iumxS-17" value="delete user&lt;br&gt;succesfully" style="shape=parallelogram;perimeter=parallelogramPerimeter;whiteSpace=wrap;html=1;fixedSize=1;" vertex="1" parent="1">
          <mxGeometry x="500" y="480" width="120" height="60" as="geometry" />
        </mxCell>
        <mxCell id="DMPIcF6X6516Oq7iumxS-18" value="End" style="ellipse;whiteSpace=wrap;html=1;" vertex="1" parent="1">
          <mxGeometry x="650" y="480" width="110" height="60" as="geometry" />
        </mxCell>
        <mxCell id="DMPIcF6X6516Oq7iumxS-19" style="edgeStyle=orthogonalEdgeStyle;rounded=0;orthogonalLoop=1;jettySize=auto;html=1;entryX=0;entryY=0.5;entryDx=0;entryDy=0;" edge="1" parent="1" source="DMPIcF6X6516Oq7iumxS-20" target="DMPIcF6X6516Oq7iumxS-5">
          <mxGeometry relative="1" as="geometry">
            <mxPoint x="230" y="270" as="targetPoint" />
            <Array as="points">
              <mxPoint x="110" y="280" />
            </Array>
          </mxGeometry>
        </mxCell>
        <mxCell id="DMPIcF6X6516Oq7iumxS-20" value="input id invalid!" style="shape=parallelogram;perimeter=parallelogramPerimeter;whiteSpace=wrap;html=1;fixedSize=1;" vertex="1" parent="1">
          <mxGeometry x="50" y="360" width="120" height="60" as="geometry" />
        </mxCell>
        <mxCell id="DMPIcF6X6516Oq7iumxS-23" value="" style="endArrow=none;html=1;rounded=0;exitX=0.5;exitY=0;exitDx=0;exitDy=0;" edge="1" parent="1" source="DMPIcF6X6516Oq7iumxS-12">
          <mxGeometry width="50" height="50" relative="1" as="geometry">
            <mxPoint x="400" y="470" as="sourcePoint" />
            <mxPoint x="220" y="280" as="targetPoint" />
          </mxGeometry>
        </mxCell>
      </root>
    </mxGraphModel>
  </diagram>
</mxfile>
